<svg id="Layer_1" data-name="Layer 1" xmlns="http://www.w3.org/2000/svg" viewBox="0 0 140.17 50.25"><defs><style>.cls-1{fill:#862c1b;}.cls-2{isolation:isolate;}.cls-3{fill:#31081f;}.cls-4{fill:none;stroke:#862c1b;stroke-miterlimit:10;stroke-width:0.5px;}</style></defs><title>ways-to-give-bot</title><g id="Welcome"><g id="Desktop-HD"><g id="header"><g id="NAV"><g id="Ways-to-give"><g id="Group-2"><path id="Fill-1" class="cls-1" d="M116,2a17.49,17.49,0,0,0-7.88-2V13.68a4.15,4.15,0,0,1,1.2.33Z" transform="translate(0.08)"/><path id="Fill-3" class="cls-1" d="M104.22,15.36a4.18,4.18,0,0,1,.93-.92L98.62,2.66a17.61,17.61,0,0,0-5.78,5.89Z" transform="translate(0.08)"/><path id="Fill-5" class="cls-1" d="M106,14a4.16,4.16,0,0,1,1.18-.3V0a17.47,17.47,0,0,0-7.72,2.16Z" transform="translate(0.08)"/><path id="Fill-7" class="cls-1" d="M122.79,8.23a17.61,17.61,0,0,0-6-5.82l-6.69,12.08a4.19,4.19,0,0,1,.88.91Z" transform="translate(0.08)"/><path id="Fill-9" class="cls-1" d="M123.29,9.06l-11.82,7.19a4.14,4.14,0,0,1,.31,1.57c0,.06,0,.12,0,.18h13.68c0-.17,0-.33,0-.5a17.39,17.39,0,0,0-2.17-8.44" transform="translate(0.08)"/><path id="Fill-12" class="cls-1" d="M103.87,16.2,92.49,9.39a17.38,17.38,0,0,0-2,8.1c0,.17,0,.33,0,.5h13c0-.06,0-.12,0-.18a4.15,4.15,0,0,1,.33-1.62" transform="translate(0.08)"/></g><g class="cls-2"><g class="cls-2"><path class="cls-3" d="M14,17.57a2.56,2.56,0,0,1-.19-.72c0-.53.5-.62.91-.62a1.41,1.41,0,0,1,1.37,1.13c.14.46.24.82.36,1.22a24.82,24.82,0,0,1,.91,6.36,19,19,0,0,1-.12,2,28.49,28.49,0,0,1,2.5-4.2c.62-1,1.27-1.92,1.92-2.88.48-.67,1.42-2.18,2.21-2.18.58,0,1.25.26,1.25.94a7.78,7.78,0,0,1-.19,1.27,15.81,15.81,0,0,0-.24,2.81c0,1.49.38,8.83,2.66,8.83,2.76,0,4.68-9.89,4.68-12.12a13.13,13.13,0,0,0-.26-2.57,2.23,2.23,0,0,1-.1-.55c0-.31.26-.46.55-.46.91,0,1,2.83,1,3.48,0,3.34-1.78,14.14-6.53,14.14-3.84,0-4.34-8.3-4.34-10.92a8.42,8.42,0,0,1,.1-1.56c-1.58,1.56-3.89,6-4.94,8.16-.53,1-1.82,4.39-2.78,4.39-.48,0-.94-.12-.94-.7a1.7,1.7,0,0,1,.19-.58,16.07,16.07,0,0,0,1.22-7.06A24.87,24.87,0,0,0,14,17.57Z" transform="translate(0.08)"/><path class="cls-3" d="M44.89,30.1c-.89,1.25-2.64,3.43-4.32,3.43s-1.78-2.59-1.78-3.72c-.62,1-2.09,3.17-3.36,3.17S34,31.39,34,30.48c0-2.52,2.62-6.91,5.42-6.91a.92.92,0,0,1,.79.74c0,.14-.12.22-.24.29a10.63,10.63,0,0,0-2.35,1.78,6.72,6.72,0,0,0-2,4.71c0,.19,0,.58.31.58,1.08,0,3.1-4.25,3.55-5.23.17-.36.36-.72.82-.72.24,0,.55.07.55.38a6.63,6.63,0,0,1-.43,1.39A9.14,9.14,0,0,0,40,30.14c0,.5,0,2.35.77,2.35,1.13,0,2.93-2.38,3.58-3.24,0,0,.34-.6.67-.6s.38.19.38.46A2.47,2.47,0,0,1,44.89,30.1Z" transform="translate(0.08)"/><path class="cls-3" d="M44.89,40.34c0-3.22,3.82-6.38,6.29-8,0-.46,0-.91,0-1.37,0-1.25,0-2.47-.07-3.72-.79,1.32-4,4.94-5.54,4.94-1.08,0-1.3-1.06-1.3-1.92a14.83,14.83,0,0,1,.84-4.32,5.82,5.82,0,0,1,.31-.91,1,1,0,0,1,.91-.67,1,1,0,0,1,1,1,5.42,5.42,0,0,1-.5,1.44,15.39,15.39,0,0,0-1,3.77c0,.14,0,.5.24.5s1.39-1,1.68-1.3a51.33,51.33,0,0,0,3.5-4.34c.22-.26.48-.67.86-.67a.9.9,0,0,1,.48.17c.38.26.38,2.09.38,2.66,0,4.3-.14,9.26-2.5,12.91a4.72,4.72,0,0,1-3.62,2.45C45.44,42.94,44.89,41.62,44.89,40.34Zm1.06,0c0,.6.17,1.54.94,1.54s1.51-.89,1.94-1.44c1.25-1.68,2-5,2.23-7.13C49,35,45.95,37.56,45.95,40.39Z" transform="translate(0.08)"/><path class="cls-3" d="M61.12,30.89a3.21,3.21,0,0,1-.55,1.85c1.1,0,3.36-2.47,4-3.41.14-.22.36-.53.62-.53s.36.24.36.48a1.35,1.35,0,0,1-.22.5c-1.8,2.83-3.86,4.49-7.34,4.49a4.22,4.22,0,0,1-2.83-.79.75.75,0,0,1-.26-.53.35.35,0,0,1,.38-.36c.19,0,.48.22.43.17a2.66,2.66,0,0,0,1.7.46,1.87,1.87,0,0,0,1.94-2.09,9.94,9.94,0,0,0-1.68-4.66,13,13,0,0,1-2.35,4.22c-.14.14-.38.38-.62.38a.33.33,0,0,1-.34-.34,1.07,1.07,0,0,1,.29-.62,14.32,14.32,0,0,0,2.45-4.58,3.84,3.84,0,0,1-.22-1.27c0-.94.62-2.81,1.78-2.81.6,0,.77.82.77,1.3a6.86,6.86,0,0,1-.55,2.38C59.63,27,61.12,28.82,61.12,30.89Z" transform="translate(0.08)"/><path class="cls-3" d="M73.88,25.94c-.29.5-1,1.46-1,1.46a4,4,0,0,0,0,.53c0,1,.22,4.56,1.51,4.56,1.49,0,3.24-2.54,4-3.7.12-.22.36-.55.62-.55a.35.35,0,0,1,.34.36,1.92,1.92,0,0,1-.38,1c-.91,1.54-3,4.37-5,4.37-2.5,0-3-5.09-3-6.89a23.81,23.81,0,0,1,.41-4.7,1.83,1.83,0,0,1-.5.07.51.51,0,0,1-.58-.58c0-.65.72-.74,1.22-.79.53-1.73,1.92-6.5,4.18-6.5,1,0,1.08,1.44,1.08,2.16a13.38,13.38,0,0,1-.53,3.77,12.57,12.57,0,0,1,1.63-.19c.21,0,.34.07.34.31s-.12.34-.31.46a13.79,13.79,0,0,1-2,.55A17.16,17.16,0,0,1,73.88,25.94ZM72.63,26a15.6,15.6,0,0,0,2.11-4.13c-.58.12-1.15.12-1.71.29A25.81,25.81,0,0,0,72.63,26Zm.55-5.14c.65-.1,1.32-.12,2-.26a15.17,15.17,0,0,0,.67-4.13c0-.14,0-.72-.24-.72C74.48,15.77,73.31,19.92,73.19,20.88Z" transform="translate(0.08)"/><path class="cls-3" d="M82.86,23.9c1.78,0,2.26,1.85,2.26,3.29a6.69,6.69,0,0,1-2.57,5.64,3.49,3.49,0,0,1-1.87.62c-1.73,0-2.3-1.75-2.3-3.19C78.37,27.86,80,23.9,82.86,23.9ZM80.1,30.31c0,.77.22,2,1.2,2a1.89,1.89,0,0,0,1.1-.46,5.42,5.42,0,0,0,1.71-4.18c0-.79-.22-2.16-1.25-2.16C81.06,25.49,80.1,28.87,80.1,30.31Z" transform="translate(0.08)"/><path class="cls-3" d="M96.25,26.26c-.89.94-2.11,2.76-2.11,4.1,0,.5.17.94.74.94,1.49,0,4.15-3.5,4.68-4.8.24-.55.74-1.25,1.42-1.25a.85.85,0,0,1,.89.94c0,4.13-.38,15.53-6.29,15.53a1.92,1.92,0,0,1-1.78-1,1,1,0,0,1-.14-.46.56.56,0,0,1,.53-.58c.6,0,.41,1,1.3,1,3.07,0,4.3-8.33,4.3-10.66a17.47,17.47,0,0,0-.07-1.94c-.91,1.54-3.1,4.42-5,4.42-1.32,0-1.75-1.1-1.75-2.26a7.58,7.58,0,0,1,2.26-4.92,6.27,6.27,0,0,1,4.46-1.9c.67,0,2.62.43,2.62,1.32A.26.26,0,0,1,102,25c-.31,0-1-.67-1.92-.67A5.48,5.48,0,0,0,96.25,26.26Z" transform="translate(0.08)"/><path class="cls-3" d="M107.12,32.33c1.29,0,3.17-2.76,3.89-3.89.14-.22.34-.5.6-.5s.31.29.31.53a3.37,3.37,0,0,1-.65,1.22c-.91,1.3-3,3.84-4.66,3.84-1.9,0-2.18-2.71-2.18-4.1a11.16,11.16,0,0,1,.5-3c.29-.86.72-1.54,1.73-1.54.36,0,.55.14.55.53A16.44,16.44,0,0,1,106.5,28a10.61,10.61,0,0,0-.22,2.14C106.28,30.7,106.31,32.33,107.12,32.33Zm1-10.15a1.26,1.26,0,0,1-1.15,1.27.85.85,0,0,1-.82-.91,1.26,1.26,0,0,1,1.13-1.27A.87.87,0,0,1,108.08,22.17Z" transform="translate(0.08)"/><path class="cls-3" d="M111.18,24.36a1,1,0,0,1,.72.41,14.5,14.5,0,0,1,2.66,5.78,65.61,65.61,0,0,1,3.5-6c.14-.19.34-.5.63-.5a.65.65,0,0,1,.65.55.56.56,0,0,1-.17.34,64.39,64.39,0,0,0-4.44,7.75s-.14.82-.72.82-.72-.89-.72-.89c-.43-1.73-1.66-5.4-2.71-6.79,0,0-.34-.31-.34-.5A1.12,1.12,0,0,1,111.18,24.36Z" transform="translate(0.08)"/><path class="cls-3" d="M120,30c0-2.16,1.75-6.75,4.34-6.75a1.3,1.3,0,0,1,1.34,1.44c0,1.61-2.26,4.15-3.72,4.68a4.8,4.8,0,0,0-.12,1c0,1.08.43,1.75,1.56,1.75,2,0,3.63-1.73,4.58-3.34.14-.24.38-.62.72-.62.14,0,.34.1.34.26a1.28,1.28,0,0,1-.22.72c-1.25,2.18-3.55,4.1-6.17,4.1C120.8,33.31,120,31.75,120,30Zm2-1.54c1-.62,2.59-2.26,2.59-3.53,0-.26-.1-.55-.41-.55C123.3,24.43,122.22,27.67,122.07,28.51Z" transform="translate(0.08)"/></g></g></g></g></g></g></g><polyline class="cls-4" points="90.58 0.83 0.25 0.83 0.25 50 139.92 50 139.92 0.83 125.88 0.83"/></svg>