<?xml version="1.0" encoding="UTF-8"?>
<svg width="116px" height="43px" viewBox="0 0 116 43" version="1.1" xmlns="http://www.w3.org/2000/svg" xmlns:xlink="http://www.w3.org/1999/xlink">
    <!-- Generator: Sketch 47.1 (45422) - http://www.bohemiancoding.com/sketch -->
    <title>Ways to give</title>
    <desc>Created with Sketch.</desc>
    <defs></defs>
    <g id="Welcome" stroke="none" stroke-width="1" fill="none" fill-rule="evenodd">
        <g id="Desktop-HD" transform="translate(-1091.000000, -86.000000)">
            <g id="header" transform="translate(1.000000, 0.000000)">
                <g id="NAV" transform="translate(0.000000, 64.000000)">
                    <g id="Ways-to-give" transform="translate(1090.000000, 22.000000)">
                        <g id="Group-2" transform="translate(77.000000, 0.000000)" fill="#862C1B">
                            <path d="M25.47615,1.9533913 C23.11165,0.730695652 20.4344,0.028173913 17.59415,-1.42108547e-14 L17.59415,13.6802609 C18.0174,13.7306087 18.4209,13.8438261 18.79565,14.0110435 L25.47615,1.9533913 Z" id="Fill-1"></path>
                            <path d="M13.72445,15.3600261 C13.9832,15.0068087 14.29545,14.6966348 14.65095,14.4402 L8.1222,2.65593913 C5.75745,4.13324348 3.7712,6.15550435 2.34095,8.54872174 L13.72445,15.3600261 Z" id="Fill-3"></path>
                            <path d="M15.474925,13.9730087 C15.844675,13.8175304 16.241425,13.7142261 16.656675,13.6709217 L16.656675,0.0146608696 C13.865175,0.133617391 11.243175,0.9024 8.938425,2.17466087 L15.474925,13.9730087 Z" id="Fill-5"></path>
                            <path d="M32.294525,8.22777391 C30.797525,5.84107826 28.740525,3.84151304 26.305775,2.41038261 L19.611275,14.4938609 C19.950025,14.749513 20.248525,15.0542087 20.495775,15.3996 L32.294525,8.22777391 Z" id="Fill-7"></path>
                            <path d="M32.7872,9.06018261 L20.9647,16.2466174 C21.16245,16.731313 21.27345,17.2606174 21.27345,17.8162696 C21.27345,17.8767913 21.2672,17.935487 21.26445,17.995487 L34.9457,17.995487 C34.9502,17.8287913 34.95845,17.6631391 34.95845,17.4954 C34.95845,14.4364435 34.1697,11.5621826 32.7872,9.06018261" id="Fill-9"></path>
                            <path d="M13.36775,16.199687 L1.994,9.39386087 C0.72275,11.8168174 0,14.5710783 0,17.4954261 C0,17.6631652 0.008,17.8288174 0.01275,17.995513 L13.05075,17.995513 C13.04825,17.935513 13.0415,17.8768174 13.0415,17.8162957 C13.0415,17.2429043 13.158,16.6969043 13.36775,16.199687" id="Fill-12"></path>
                        </g>
                        <text font-family="BlackJackRegular, BlackJack" font-size="24" font-weight="700" fill="#31081F">
                            <tspan x="0" y="33">Ways to give</tspan>
                        </text>
                    </g>
                </g>
            </g>
        </g>
    </g>
</svg>