<svg version="1.1" id="Layer_1" xmlns="http://www.w3.org/2000/svg" xmlns:xlink="http://www.w3.org/1999/xlink" x="0px" y="0px" viewBox="0 0 36 36" style="enable-background:new 0 0 36 36" xml:space="preserve">
    <path fill="none" stroke="currentColor" stroke-width="2" d="M18,35c9.4,0,17-7.6,17-17S27.4,1,18,1S1,8.6,1,18S8.6,35,18,35"/>
    <path fill="currentColor" d="M13.9,15.1h1.8v-1.7c-0.1-0.9,0.1-1.8,0.6-2.6c0.6-0.9,1.7-1.4,2.8-1.3c1.1,0,2.1,0.1,3.1,0.3l-0.4,2.6
	c-0.5-0.1-0.9-0.2-1.4-0.2c-0.7,0-1.3,0.3-1.3,0.9v2h2.8l-0.2,2.5H19v8.8h-3.3v-8.9h-1.8V15.1z"/>
</svg>
